<svg xmlns="http://www.w3.org/2000/svg" xmlns:xlink="http://www.w3.org/1999/xlink" width="880" height="1390"><g transform="translate(-240 -140)"><path d="M580 165c0-2.76 2.24-5 5-5h270c2.76 0 5 2.24 5 5v90c0 2.76-2.24 5-5 5H585c-2.76 0-5-2.24-5-5z" stroke="#000" stroke-width="2" fill="#fff"/><use xlink:href="#a" transform="matrix(1,0,0,1,600,160) translate(81.55 53.6)"/><path d="M768 480c17.67 0 32 13.43 32 30s-14.33 30-32 30h-96c-17.67 0-32-13.43-32-30s14.33-30 32-30z" stroke="#000" stroke-width="2" fill="#fff"/><use xlink:href="#b" transform="matrix(1,0,0,1,656,480) translate(44.275 33.6)"/><use xlink:href="#c" transform="matrix(1,0,0,1,656,480) translate(53.224999999999994 33.6)"/><use xlink:href="#d" transform="matrix(1,0,0,1,656,480) translate(73.725 33.6)"/><path d="M720 240l-1.06 60.98L720 312" stroke="#000" stroke-width="2" fill="none"/><path d="M721 240.02l-1.05-.02H721z"/><path d="M720 312l-5.57-13.93 9.25-.6z" stroke="#000" stroke-width="2"/><path d="M720 421v58" stroke="#000" stroke-width="2" fill="none"/><path d="M721 421h-2v-1h2zM720 479l-4.64-14.27h9.28z"/><path d="M720.73 480h-1.46L714 463.73h12zm-4-14.27l3.27 10.03 3.26-10.03z"/><path d="M715.7 582.57c2.38-1.42 6.22-1.42 8.6 0l91.4 54.86c2.38 1.42 2.38 3.72 0 5.14l-91.4 54.86c-2.38 1.42-6.22 1.42-8.6 0l-91.4-54.86c-2.38-1.42-2.38-3.72 0-5.14z" stroke="#000" stroke-width="2" fill="#fff"/><use xlink:href="#e" transform="matrix(1,0,0,1,670,609.9987961113026) translate(25.1858024691358 33.6)"/><use xlink:href="#f" transform="matrix(1,0,0,1,670,609.9987961113026) translate(34.1358024691358 33.6)"/><use xlink:href="#g" transform="matrix(1,0,0,1,670,609.9987961113026) translate(48.864197530864196 33.6)"/><path d="M720 698.74l-.87 21.83L720 760" stroke="#000" stroke-width="2" fill="none"/><path d="M720.3 698.5l.7-.1v.38l-2-.08v-.3zM720 760l-4.95-14.16 9.27-.2z"/><path d="M721.04 760h-2.1l-5.3-15.13 12.03-.27zm-4.6-13.2l3.5 9.96 3.03-10.1z"/><path fill="#fff" d="M710.82 718.56h17v21.6h-17z"/><use xlink:href="#h" transform="matrix(1,0,0,1,710.8234250568822,718.5627991823566) translate(0 14.4)"/><path d="M630 765c0-2.76 2.24-5 5-5h170c2.76 0 5 2.24 5 5v50c0 2.76-2.24 5-5 5H635c-2.76 0-5-2.24-5-5z" stroke="#000" stroke-width="2" fill="#fff"/><use xlink:href="#i" transform="matrix(1,0,0,1,650,759.9987961113025) translate(0.07499999999998863 33.6)"/><use xlink:href="#j" transform="matrix(1,0,0,1,650,759.9987961113025) translate(29.02499999999999 33.6)"/><use xlink:href="#k" transform="matrix(1,0,0,1,650,759.9987961113025) translate(44.52499999999999 33.6)"/><use xlink:href="#l" transform="matrix(1,0,0,1,650,759.9987961113025) translate(74.475 33.6)"/><use xlink:href="#m" transform="matrix(1,0,0,1,650,759.9987961113025) translate(89.975 33.6)"/><use xlink:href="#n" transform="matrix(1,0,0,1,650,759.9987961113025) translate(119.925 33.6)"/><use xlink:href="#o" transform="matrix(1,0,0,1,650,759.9987961113025) translate(129.925 33.6)"/><path d="M715.84 882.77c2.3-1.53 6.02-1.53 8.32 0l81.68 54.46c2.3 1.53 2.3 4 0 5.54l-81.68 54.46c-2.3 1.53-6.02 1.53-8.32 0l-81.68-54.46c-2.3-1.53-2.3-4 0-5.54z" stroke="#000" stroke-width="2" fill="#fff"/><use xlink:href="#p" transform="matrix(1,0,0,1,675,909.9987961113023) translate(6.625 20.799999999999997)"/><use xlink:href="#q" transform="matrix(1,0,0,1,675,909.9987961113023) translate(31.66296296296296 45.06666666666667)"/><use xlink:href="#r" transform="matrix(1,0,0,1,675,909.9987961113023) translate(48.337037037037035 45.06666666666667)"/><path d="M720 820v60" stroke="#000" stroke-width="2" fill="none"/><path d="M721 820h-2 2zM720 880l-4.64-14.27h9.28z"/><path d="M720.5 881.7l-.67-.07-.34.04-5.5-16.94h12zm-3.76-14.97l3.26 10.03 3.26-10.03z"/><path d="M807.35 940l4.1.47 3.86.64 3.7.82 3.54.96 3.4 1.1 3.27 1.25 3.16 1.4 3.06 1.52 2.97 1.68 2.88 1.83 2.82 2 2.76 2.16 2.7 2.34 2.64 2.53 2.58 2.73 2.53 2.97 2.48 3.22 2.42 3.48 2.34 3.77 2.26 4.1 2.18 4.42 2.06 4.8 1.92 5.17 1.77 5.6 1.58 6.02 1.35 6.44 1.08 6.86.77 7.25.42 7.6.08 4.85" stroke="#000" stroke-width="2" fill="none"/><path d="M807.54 939.02l-.2 1 .1-.86-.17-.2zM880 1040l-5.36-14 9.26-.48z"/><path d="M881.04 1040h-2.1l-5.73-14.94 12.02-.6zm-4.97-13.08l3.76 9.85 2.75-10.2z"/><path fill="#fff" d="M851.72 963.9h22.96v21.6h-22.96z"/><use xlink:href="#s" transform="matrix(1,0,0,1,851.7176869063736,963.9016620401534) translate(0 14.4)"/><path d="M1068 1420c17.67 0 32 13.43 32 30s-14.33 30-32 30h-96c-17.67 0-32-13.43-32-30s14.33-30 32-30z" stroke="#000" stroke-width="2" fill="#fff"/><use xlink:href="#b" transform="matrix(1,0,0,1,956,1420) translate(34.55 33.6)"/><use xlink:href="#t" transform="matrix(1,0,0,1,956,1420) translate(43.5 33.6)"/><use xlink:href="#u" transform="matrix(1,0,0,1,956,1420) translate(59 33.6)"/><use xlink:href="#v" transform="matrix(1,0,0,1,956,1420) translate(67.94999999999999 33.6)"/><use xlink:href="#w" transform="matrix(1,0,0,1,956,1420) translate(83.44999999999999 33.6)"/><path d="M1020 1420l1.56-68.52 21.14-376.3-.93-47.1-2.2-35.48-2.95-28.27-3.43-23.32-3.76-19.7-3.97-16.95-4.12-14.8-4.23-13.04-4.33-11.62-4.4-10.45-4.44-9.46-4.5-8.62-4.57-7.9-4.63-7.3-4.68-6.73-4.76-6.26-4.83-5.84-4.9-5.46-5.04-5.14-5.14-4.82-5.27-4.55-5.42-4.3-5.6-4.07-5.78-3.84-6-3.64-6.26-3.44-6.55-3.24-6.85-3.05-7.22-2.86-7.62-2.64-8.1-2.44-8.64-2.22-9.25-1.96-9.97-1.7-10.8-1.35-11.76-1-12.9-.53L820 640" stroke="#000" stroke-width="2" fill="none"/><path d="M1020.42 1420H1019v-.03zM834.13 645.02L820 640l14.4-4.25z"/><path d="M835.1 646.42l-17.85-6.34.07-.33 18.1-5.35zm-11.87-6.33l9.94 3.52.18-6.52z"/><path d="M622.73 640l-8.5-1.64-8.1-1.2-7.73-.84-7.42-.48-7.13-.16-6.9.13-6.68.42-6.5.67-6.35.92-6.2 1.17-6.1 1.4-6 1.68-5.94 1.92-5.87 2.17-5.83 2.44-5.82 2.74-5.8 3.02-5.82 3.35-5.84 3.7-5.9 4.08-5.92 4.48-6 4.95-6.07 5.47-6.16 6.02-6.28 6.65-6.4 7.4-6.5 8.2-6.66 9.1-6.78 10.2-6.92 11.4-7.04 12.75-7.14 14.33-7.2 16.1-7.2 18.12-7.1 20.34-6.9 22.73L379.5 869l-5.95 27.77-5.12 30-4.05 31.72-2.78 32.5-1.4 32.2-.2 16.8" stroke="#000" stroke-width="2" fill="none"/><path d="M622.98 641.06l-.42-.08.06-.34zm-.04-2.04l-.24 1.12.2-1.13zM364.8 1025.8L360 1040l-4.47-14.32z"/><path d="M366.18 1024.8l-5.12 15.2h-2.1l-4.8-15.33zm-6.14 11.96l3.37-10-6.5-.06z"/><path fill="#fff" d="M399.87 762.5h22.96v21.6h-22.96z"/><use xlink:href="#s" transform="matrix(1,0,0,1,399.87411729452543,762.5105812729497) translate(0 14.4)"/><path d="M640 325c0-2.76 2.22-5.28 4.96-5.62l150.08-18.76c2.74-.34 4.96 1.62 4.96 4.38v110c0 2.76-2.24 5-5 5H645c-2.76 0-5-2.24-5-5z" stroke="#000" stroke-width="2" fill="#fff"/><use xlink:href="#x" transform="matrix(1,0,0,1,660,324) translate(24.5 40.8)"/><use xlink:href="#y" transform="matrix(1,0,0,1,660,324) translate(53.5 40.8)"/><use xlink:href="#z" transform="matrix(1,0,0,1,660,324) translate(82.5 40.8)"/><use xlink:href="#A" transform="matrix(1,0,0,1,660,324) translate(30.049999999999997 62.4)"/><path d="M720 540v40" stroke="#000" stroke-width="2" fill="none"/><path d="M721 540h-2 2zM720 580l-4.64-14.27h9.28z"/><path d="M720.54 581.58l-.85-.07-.25.04-5.46-16.8h12zm-3.8-14.85l3.26 10.03 3.26-10.03z"/><path d="M480 1045c0-2.76 2.24-5 5-5h150c2.76 0 5 2.24 5 5v110c0 2.76-2.24 5-5 5H485c-2.76 0-5-2.24-5-5z" stroke="#000" stroke-width="2" fill="#fff"/><use xlink:href="#B" transform="matrix(1,0,0,1,500,1040) translate(28.275 63.6)"/><use xlink:href="#j" transform="matrix(1,0,0,1,500,1040) translate(52.275 63.6)"/><use xlink:href="#C" transform="matrix(1,0,0,1,500,1040) translate(67.775 63.6)"/><path d="M800 1045c0-2.76 2.24-5 5-5h150c2.76 0 5 2.24 5 5v110c0 2.76-2.24 5-5 5H805c-2.76 0-5-2.24-5-5z" stroke="#000" stroke-width="2" fill="#fff"/><use xlink:href="#D" transform="matrix(1,0,0,1,820,1040) translate(28.275 63.6)"/><use xlink:href="#j" transform="matrix(1,0,0,1,820,1040) translate(52.275 63.6)"/><use xlink:href="#C" transform="matrix(1,0,0,1,820,1040) translate(67.775 63.6)"/><path d="M632.65 940l-3.16-.2-3-.05-2.88.1-2.77.24-2.66.35-2.6.48-2.52.6-2.45.73-2.4.84-2.4.96-2.33 1.1-2.32 1.2-2.3 1.38-2.3 1.52-2.3 1.7-2.28 1.86-2.3 2.08-2.3 2.3-2.32 2.57-2.32 2.84-2.33 3.17-2.33 3.52-2.32 3.9-2.3 4.36-2.25 4.83-2.17 5.35-2.06 5.9-1.9 6.45-1.66 6.98-1.4 7.45-1.06 7.8-.7 8-.27 8v1.67" stroke="#000" stroke-width="2" fill="none"/><path d="M632.7 941h-.02v-.03zm-.05-1l-.04-1h.14zM565.34 1025.98L560 1040l-3.92-14.48z"/><path d="M566.77 1025.05l-5.7 14.95h-2.1l-4.2-15.55zm-6.6 11.72l3.75-9.86-6.5-.3z"/><path fill="#fff" d="M567.45 962.1h17v21.6h-17z"/><use xlink:href="#h" transform="matrix(1,0,0,1,567.4498258311074,962.1089854545837) translate(0 14.4)"/><path d="M640 1225c0-2.76 2.24-5 5-5h150c2.76 0 5 2.24 5 5v110c0 2.76-2.24 5-5 5H645c-2.76 0-5-2.24-5-5z" stroke="#000" stroke-width="2" fill="#fff"/><use xlink:href="#E" transform="matrix(1,0,0,1,660,1220) translate(1 52.8)"/><use xlink:href="#j" transform="matrix(1,0,0,1,660,1220) translate(18 52.8)"/><use xlink:href="#F" transform="matrix(1,0,0,1,660,1220) translate(33.5 52.8)"/><use xlink:href="#G" transform="matrix(1,0,0,1,660,1220) translate(43.15 52.8)"/><use xlink:href="#H" transform="matrix(1,0,0,1,660,1220) translate(73.1 52.8)"/><use xlink:href="#I" transform="matrix(1,0,0,1,660,1220) translate(84.05 52.8)"/><use xlink:href="#J" transform="matrix(1,0,0,1,660,1220) translate(114 52.8)"/><use xlink:href="#K" transform="matrix(1,0,0,1,660,1220) translate(45.675 74.4)"/><use xlink:href="#L" transform="matrix(1,0,0,1,660,1220) translate(69.675 74.4)"/><path d="M560 1160l.2 9.3.56 9.07.9 8.66 1.2 8.15 1.46 7.6 1.64 7 1.8 6.4 1.9 5.88 2 5.36 2.04 4.9 2.1 4.45 2.12 4.06 2.14 3.72 2.16 3.4 2.16 3.1 2.17 2.86 2.17 2.64 2.18 2.42 2.18 2.22 2.2 2.06 2.2 1.9 2.2 1.75 2.23 1.6 2.26 1.5 2.27 1.4 2.3 1.25 2.36 1.17 2.37 1.06 2.44.97 2.5.87 2.57.77 2.64.67 2.74.58 2.82.47 2.93.37 3.05.25 3.2.13 1.65.02" stroke="#000" stroke-width="2" fill="none"/><path d="M559 1160.04v-.04h1.05zM640 1280l-14.66 3.17.94-9.23z"/><path d="M640 1278.9v2.12l-15.8 3.42 1.22-11.97zm-13.53 3l10.3-2.23-9.64-4.26z"/><path d="M880 1160l-.2 9.3-.56 9.07-.9 8.66-1.2 8.15-1.46 7.6-1.64 7-1.8 6.4-1.9 5.88-2 5.36-2.04 4.9-2.1 4.45-2.12 4.06-2.14 3.72-2.16 3.4-2.16 3.1-2.17 2.86-2.17 2.64-2.18 2.42-2.18 2.22-2.2 2.06-2.2 1.9-2.2 1.75-2.23 1.6-2.26 1.5-2.27 1.4-2.3 1.25-2.36 1.17-2.37 1.06-2.44.97-2.5.87-2.57.77-2.64.67-2.74.58-2.82.47-2.93.37-3.05.25-3.2.13-1.65.02" stroke="#000" stroke-width="2" fill="none"/><path d="M881 1160.04l-1.05-.04H881zM814.66 1283.17L800 1280l13.72-6.06z"/><path d="M815.8 1284.44l-15.8-3.42v-2.1l14.58-6.45zm-12.58-4.77l10.3 2.23-.65-6.5z"/><path d="M716 1393c2.2-1.66 5.8-1.66 8 0l72 54c2.2 1.66 2.2 4.34 0 6l-72 54c-2.2 1.66-5.8 1.66-8 0l-72-54c-2.2-1.66-2.2-4.34 0-6z" stroke="#000" stroke-width="2" fill="#fff"/><use xlink:href="#M" transform="matrix(1,0,0,1,680,1420) translate(18.7 34.266666666666666)"/><use xlink:href="#N" transform="matrix(1,0,0,1,680,1420) translate(35.7 34.266666666666666)"/><use xlink:href="#O" transform="matrix(1,0,0,1,680,1420) translate(53.3 34.266666666666666)"/><path d="M720 1340v50" stroke="#000" stroke-width="2" fill="none"/><path d="M721 1340h-2 2zM720 1390l-4.64-14.27h9.28z"/><path d="M720.46 1391.82l-.46-.06-.46.06-5.55-17.1h12zm-3.72-15.1l3.26 10.04 3.26-10.03z"/><path d="M420 1395c0-2.76 2.24-5 5-5h150c2.76 0 5 2.24 5 5v115c-26.67-20-43.33-20-53.33-20-16 0-37.34 20-53.34 20-10 0-26.66 0-53.33-20z" stroke="#000" stroke-width="2" fill="#fff"/><g><use xlink:href="#P" transform="matrix(1,0,0,1,440,1390) translate(48.025 57.6)"/></g><path d="M642.53 1450H580" stroke="#000" stroke-width="2" fill="none"/><path d="M642.53 1451v-2zM594.27 1454.64L580 1450l14.27-4.64z"/><path d="M595.27 1456l-15.27-4.95v-2.1l15.27-4.96zm-12.03-6l10.03 3.26v-6.52z"/><path fill="#fff" d="M602.76 1439.2h17v21.6h-17z"/><g><use xlink:href="#h" transform="matrix(1,0,0,1,602.7631513839846,1439.2) translate(0 14.4)"/></g><path d="M797.47 1450H940" stroke="#000" stroke-width="2" fill="none"/><path d="M797.47 1451v-2zM940 1450l-14.27 4.64v-9.28z"/><path d="M940.08 1448.97L940 1450v.24l.07.8-15.34 4.97v-12zm-13.35 4.3l10.03-3.27-10.03-3.26z"/><path fill="#fff" d="M857.26 1439.2h22.96v21.6h-22.96z"/><g><use xlink:href="#Q" transform="matrix(1,0,0,1,857.2624486100156,1439.2000000000003) translate(0 14.4)"/></g><path d="M280 1045c0-2.76 2.24-5 5-5h150c2.76 0 5 2.24 5 5v115c-26.67-20-43.33-20-53.33-20-16 0-37.34 20-53.34 20-10 0-26.66 0-53.33-20z" stroke="#000" stroke-width="2" fill="#fff"/><g><use xlink:href="#R" transform="matrix(1,0,0,1,300,1040) translate(36.525 36)"/><use xlink:href="#S" transform="matrix(1,0,0,1,300,1040) translate(64.475 36)"/><use xlink:href="#T" transform="matrix(1,0,0,1,300,1040) translate(7.524999999999999 57.6)"/><use xlink:href="#U" transform="matrix(1,0,0,1,300,1040) translate(82.475 57.6)"/><use xlink:href="#V" transform="matrix(1,0,0,1,300,1040) translate(45.025 79.20000000000002)"/></g><path d="M360 1149.83l2.88 6 2.45 5.7 2.1 5.52 1.77 5.33 1.5 5.2 1.23 5.1 1 5.05.8 5.02.55 5.03.36 5.1.14 5.16-.07 5.32-.3 5.52-.56 5.8-.87 6.18-1.23 6.7-1.7 7.5-2.36 8.65-3.43 10.8-5.92 16.2-24.34 62.2-4.23 13.3-3.05 11.23-2.3 10.1-1.72 9.4-1.26 8.96-.85 8.66-.48 8.5-.12 6.94" stroke="#000" stroke-width="2" fill="none"/><path d="M360.92 1149.42l-.98.44.96-.48zM325.17 1405.92L320 1420l-4.1-14.43z"/><path d="M326.58 1404.97l-5.5 15.03h-2.12l-4.4-15.48zm-6.46 11.8l3.64-9.9-6.5-.25z"/><path d="M356 1420c13.25 0 24 13.43 24 30s-10.75 30-24 30h-72c-13.25 0-24-13.43-24-30s10.75-30 24-30z" stroke="#000" stroke-width="2" fill="#fff"/><g><use xlink:href="#W" transform="matrix(1,0,0,1,272,1420) translate(35.55 33.6)"/></g><path d="M420 1450h-40" stroke="#000" stroke-width="2" fill="none"/><path d="M420 1451v-2zM394.27 1454.64L380 1450l14.27-4.64z"/><path d="M395.27 1456l-15.35-4.98.08-1.02-.04-1.04 15.3-4.97zm-12.03-6l10.03 3.26v-6.52z"/><defs><path d="M160-131c35 5 61 23 61 61C221 17 115-2 30 0v-248c76 3 177-17 177 60 0 33-19 50-47 57zm-97-11c50-1 110 9 110-42 0-47-63-36-110-37v79zm0 115c55-2 124 14 124-45 0-56-70-42-124-44v89" id="X"/><path d="M24-231v-30h32v30H24zM24 0v-190h32V0H24" id="Y"/><path d="M135-143c-3-34-86-38-87 0 15 53 115 12 119 90S17 21 10-45l28-5c4 36 97 45 98 0-10-56-113-15-118-90-4-57 82-63 122-42 12 7 21 19 24 35" id="Z"/><path d="M100-194c63 0 86 42 84 106H49c0 40 14 67 53 68 26 1 43-12 49-29l28 8c-11 28-37 45-77 45C44 4 14-33 15-96c1-61 26-98 85-98zm52 81c6-60-76-77-97-28-3 7-6 17-6 28h103" id="aa"/><path d="M96-169c-40 0-48 33-48 73s9 75 48 75c24 0 41-14 43-38l32 2c-6 37-31 61-74 61-59 0-76-41-82-99-10-93 101-131 147-64 4 7 5 14 7 22l-32 3c-4-21-16-35-41-35" id="ab"/><path d="M100-194c62-1 85 37 85 99 1 63-27 99-86 99S16-35 15-95c0-66 28-99 85-99zM99-20c44 1 53-31 53-75 0-43-8-75-51-75s-53 32-53 75 10 74 51 75zM76-211c8-23 27-35 38-54h36v5l-58 49H76" id="ac"/><path d="M117-194c89-4 53 116 60 194h-32v-121c0-31-8-49-39-48C34-167 62-67 57 0H25l-1-190h30c1 10-1 24 2 32 11-22 29-35 61-36" id="ad"/><g id="a"><use transform="matrix(0.05,0,0,0.05,0,0)" xlink:href="#X"/><use transform="matrix(0.05,0,0,0.05,12,0)" xlink:href="#Y"/><use transform="matrix(0.05,0,0,0.05,15.949999999999998,0)" xlink:href="#Z"/><use transform="matrix(0.05,0,0,0.05,24.95,0)" xlink:href="#aa"/><use transform="matrix(0.05,0,0,0.05,34.95,0)" xlink:href="#ab"/><use transform="matrix(0.05,0,0,0.05,43.95,0)" xlink:href="#ab"/><use transform="matrix(0.05,0,0,0.05,52.95,0)" xlink:href="#Y"/><use transform="matrix(0.05,0,0,0.05,56.900000000000006,0)" xlink:href="#ac"/><use transform="matrix(0.05,0,0,0.05,66.9,0)" xlink:href="#ad"/></g><use transform="matrix(0.05,0,0,0.05,0,0)" xlink:href="#Y" id="b"/><path d="M33-154v-36h34v36H33zM33 0v-36h34V0H33" id="ae"/><path d="M18-150v-26h174v26H18zm0 90v-26h174v26H18" id="af"/><g id="c"><use transform="matrix(0.05,0,0,0.05,0,0)" xlink:href="#ae"/><use transform="matrix(0.05,0,0,0.05,5,0)" xlink:href="#af"/></g><path d="M101-251c68 0 85 55 85 127S166 4 100 4C33 4 14-52 14-124c0-73 17-127 87-127zm-1 229c47 0 54-49 54-102s-4-102-53-102c-51 0-55 48-55 102 0 53 5 102 54 102" id="ag"/><use transform="matrix(0.05,0,0,0.05,0,0)" xlink:href="#ag" id="d"/><use transform="matrix(0.05,0,0,0.05,0,0)" xlink:href="#Y" id="e"/><path d="M79-60L52-10H27l26-50H11v-26h55l33-64H11v-26h101l27-52h25l-26 52h48v26h-61L91-86h95v26H79" id="ah"/><use transform="matrix(0.04938271604938272,0,0,0.04938271604938272,0,0)" xlink:href="#ah" id="f"/><path d="M33 0v-248h34V0H33" id="ai"/><path d="M59-47c-2 24 18 29 38 22v24C64 9 27 4 27-40v-127H5v-23h24l9-43h21v43h35v23H59v120" id="aj"/><path d="M114-163C36-179 61-72 57 0H25l-1-190h30c1 12-1 29 2 39 6-27 23-49 58-41v29" id="ak"/><g id="g"><use transform="matrix(0.05,0,0,0.05,0,0)" xlink:href="#ai"/><use transform="matrix(0.05,0,0,0.05,5,0)" xlink:href="#aj"/><use transform="matrix(0.05,0,0,0.05,10,0)" xlink:href="#aa"/><use transform="matrix(0.05,0,0,0.05,20,0)" xlink:href="#ak"/></g><path d="M185-189c-5-48-123-54-124 2 14 75 158 14 163 119 3 78-121 87-175 55-17-10-28-26-33-46l33-7c5 56 141 63 141-1 0-78-155-14-162-118-5-82 145-84 179-34 5 7 8 16 11 25" id="al"/><path d="M34 0v-190h32V0H34zM24-211c8-23 27-35 38-54h36v5l-58 49H24" id="am"/><g id="h"><use transform="matrix(0.05,0,0,0.05,0,0)" xlink:href="#al"/><use transform="matrix(0.05,0,0,0.05,12,0)" xlink:href="#am"/></g><path d="M141 0L90-78 38 0H4l68-98-65-92h35l48 74 47-74h35l-64 92 68 98h-35" id="an"/><path d="M210-169c-67 3-38 105-44 169h-31v-121c0-29-5-50-35-48C34-165 62-65 56 0H25l-1-190h30c1 10-1 24 2 32 10-44 99-50 107 0 11-21 27-35 58-36 85-2 47 119 55 194h-31v-121c0-29-5-49-35-48" id="ao"/><g id="i"><use transform="matrix(0.05,0,0,0.05,0,0)" xlink:href="#an"/><use transform="matrix(0.05,0,0,0.05,9,0)" xlink:href="#ao"/></g><use transform="matrix(0.05,0,0,0.05,0,0)" xlink:href="#af" id="j"/><path d="M87 75C49 33 22-17 22-94c0-76 28-126 65-167h31c-38 41-64 92-64 168S80 34 118 75H87" id="ap"/><g id="k"><use transform="matrix(0.05,0,0,0.05,0,0)" xlink:href="#ap"/><use transform="matrix(0.05,0,0,0.05,5.95,0)" xlink:href="#an"/><use transform="matrix(0.05,0,0,0.05,14.949999999999998,0)" xlink:href="#ag"/></g><path d="M118-107v75H92v-75H18v-26h74v-75h26v75h74v26h-74" id="aq"/><use transform="matrix(0.05,0,0,0.05,0,0)" xlink:href="#aq" id="l"/><path d="M27 0v-27h64v-190l-56 39v-29l58-41h29v221h61V0H27" id="ar"/><path d="M33-261c38 41 65 92 65 168S71 34 33 75H2C39 34 66-17 66-93S39-220 2-261h31" id="as"/><g id="m"><use transform="matrix(0.05,0,0,0.05,0,0)" xlink:href="#an"/><use transform="matrix(0.05,0,0,0.05,9,0)" xlink:href="#ar"/><use transform="matrix(0.05,0,0,0.05,19,0)" xlink:href="#as"/></g><path d="M0 4l72-265h28L28 4H0" id="at"/><use transform="matrix(0.05,0,0,0.05,0,0)" xlink:href="#at" id="n"/><path d="M101-251c82-7 93 87 43 132L82-64C71-53 59-42 53-27h129V0H18c2-99 128-94 128-182 0-28-16-43-45-43s-46 15-49 41l-32-3c6-41 34-60 81-64" id="au"/><use transform="matrix(0.05,0,0,0.05,0,0)" xlink:href="#au" id="o"/><path d="M101-234c-31-9-42 10-38 44h38v23H63V0H32v-167H5v-23h27c-7-52 17-82 69-68v24" id="av"/><g id="p"><use transform="matrix(0.05,0,0,0.05,0,0)" xlink:href="#av"/><use transform="matrix(0.05,0,0,0.05,5,0)" xlink:href="#ap"/><use transform="matrix(0.05,0,0,0.05,10.95,0)" xlink:href="#an"/><use transform="matrix(0.05,0,0,0.05,19.95,0)" xlink:href="#ag"/><use transform="matrix(0.05,0,0,0.05,29.950000000000003,0)" xlink:href="#as"/><use transform="matrix(0.05,0,0,0.05,35.9,0)" xlink:href="#av"/><use transform="matrix(0.05,0,0,0.05,40.9,0)" xlink:href="#ap"/><use transform="matrix(0.05,0,0,0.05,46.85,0)" xlink:href="#an"/><use transform="matrix(0.05,0,0,0.05,55.85,0)" xlink:href="#ao"/><use transform="matrix(0.05,0,0,0.05,70.8,0)" xlink:href="#as"/></g><path d="M11-111v-36l175-69v27L36-129l150 61v27zM11 0v-25h175V0H11" id="aw"/><use transform="matrix(0.05925925925925927,0,0,0.05925925925925927,0,0)" xlink:href="#aw" id="q"/><use transform="matrix(0.05,0,0,0.05,0,0)" xlink:href="#ag" id="r"/><path d="M190 0L58-211 59 0H30v-248h39L202-35l-2-213h31V0h-41" id="ax"/><path d="M100-194c62-1 85 37 85 99 1 63-27 99-86 99S16-35 15-95c0-66 28-99 85-99zM99-20c44 1 53-31 53-75 0-43-8-75-51-75s-53 32-53 75 10 74 51 75" id="ay"/><g id="s"><use transform="matrix(0.05,0,0,0.05,0,0)" xlink:href="#ax"/><use transform="matrix(0.05,0,0,0.05,12.950000000000001,0)" xlink:href="#ay"/></g><use transform="matrix(0.05,0,0,0.05,0,0)" xlink:href="#af" id="t"/><use transform="matrix(0.05,0,0,0.05,0,0)" xlink:href="#Y" id="u"/><use transform="matrix(0.05,0,0,0.05,0,0)" xlink:href="#aq" id="v"/><use transform="matrix(0.05,0,0,0.05,0,0)" xlink:href="#ar" id="w"/><path d="M68-38c1 34 0 65-14 84H32c9-13 17-26 17-46H33v-38h35" id="az"/><g id="x"><use transform="matrix(0.05,0,0,0.05,0,0)" xlink:href="#an"/><use transform="matrix(0.05,0,0,0.05,9,0)" xlink:href="#ag"/><use transform="matrix(0.05,0,0,0.05,19,0)" xlink:href="#az"/></g><g id="y"><use transform="matrix(0.05,0,0,0.05,0,0)" xlink:href="#an"/><use transform="matrix(0.05,0,0,0.05,9,0)" xlink:href="#ar"/><use transform="matrix(0.05,0,0,0.05,19,0)" xlink:href="#az"/></g><path d="M45-52c0 51 76 30 90 4l19 17C128 13 9 23 12-52c1-29 19-44 47-47-24-4-41-17-41-44 0-64 108-64 131-18l-23 15c-11-27-76-37-76 4 0 30 32 30 63 31v23c-34 0-68 2-68 36" id="aA"/><g id="z"><use transform="matrix(0.05,0,0,0.05,0,0)" xlink:href="#aA"/><use transform="matrix(0.05,0,0,0.05,8,0)" xlink:href="#az"/></g><path d="M240 0l2-218c-23 76-54 145-80 218h-23L58-218 59 0H30v-248h44l77 211c21-75 51-140 76-211h43V0h-30" id="aB"/><path d="M141-36C126-15 110 5 73 4 37 3 15-17 15-53c-1-64 63-63 125-63 3-35-9-54-41-54-24 1-41 7-42 31l-33-3c5-37 33-52 76-52 45 0 72 20 72 64v82c-1 20 7 32 28 27v20c-31 9-61-2-59-35zM48-53c0 20 12 33 32 33 41-3 63-29 60-74-43 2-92-5-92 41" id="aC"/><g id="A"><use transform="matrix(0.05,0,0,0.05,0,0)" xlink:href="#aB"/><use transform="matrix(0.05,0,0,0.05,14.950000000000001,0)" xlink:href="#aC"/><use transform="matrix(0.05,0,0,0.05,24.950000000000003,0)" xlink:href="#an"/><use transform="matrix(0.05,0,0,0.05,33.95,0)" xlink:href="#ai"/><use transform="matrix(0.05,0,0,0.05,38.95,0)" xlink:href="#aj"/><use transform="matrix(0.05,0,0,0.05,43.95,0)" xlink:href="#aa"/><use transform="matrix(0.05,0,0,0.05,53.95,0)" xlink:href="#ak"/></g><g id="B"><use transform="matrix(0.05,0,0,0.05,0,0)" xlink:href="#an"/><use transform="matrix(0.05,0,0,0.05,9,0)" xlink:href="#ar"/></g><g id="C"><use transform="matrix(0.05,0,0,0.05,0,0)" xlink:href="#an"/><use transform="matrix(0.05,0,0,0.05,9,0)" xlink:href="#ao"/></g><g id="D"><use transform="matrix(0.05,0,0,0.05,0,0)" xlink:href="#an"/><use transform="matrix(0.05,0,0,0.05,9,0)" xlink:href="#ag"/></g><use transform="matrix(0.05,0,0,0.05,0,0)" xlink:href="#al" id="E"/><path d="M32 76v-337h29V76H32" id="aD"/><use transform="matrix(0.05,0,0,0.05,0,0)" xlink:href="#aD" id="F"/><g id="G"><use transform="matrix(0.05,0,0,0.05,0,0)" xlink:href="#ap"/><use transform="matrix(0.05,0,0,0.05,5.95,0)" xlink:href="#an"/><use transform="matrix(0.05,0,0,0.05,14.949999999999998,0)" xlink:href="#ar"/></g><path d="M16-82v-28h88v28H16" id="aE"/><use transform="matrix(0.05,0,0,0.05,0,0)" xlink:href="#aE" id="H"/><g id="I"><use transform="matrix(0.05,0,0,0.05,0,0)" xlink:href="#an"/><use transform="matrix(0.05,0,0,0.05,9,0)" xlink:href="#ag"/><use transform="matrix(0.05,0,0,0.05,19,0)" xlink:href="#as"/></g><use transform="matrix(0.05,0,0,0.05,0,0)" xlink:href="#at" id="J"/><g id="K"><use transform="matrix(0.05,0,0,0.05,0,0)" xlink:href="#an"/><use transform="matrix(0.05,0,0,0.05,9,0)" xlink:href="#ar"/></g><use transform="matrix(0.05,0,0,0.05,0,0)" xlink:href="#aD" id="L"/><use transform="matrix(0.05,0,0,0.05,0,0)" xlink:href="#al" id="M"/><use transform="matrix(0.05925925925925927,0,0,0.05925925925925927,0,0)" xlink:href="#aw" id="N"/><use transform="matrix(0.05,0,0,0.05,0,0)" xlink:href="#aA" id="O"/><g id="P"><use transform="matrix(0.05,0,0,0.05,0,0)" xlink:href="#an"/><use transform="matrix(0.05,0,0,0.05,9,0)" xlink:href="#ao"/></g><g id="Q"><use transform="matrix(0.05,0,0,0.05,0,0)" xlink:href="#ax"/><use transform="matrix(0.05,0,0,0.05,12.950000000000001,0)" xlink:href="#ay"/></g><g id="R"><use transform="matrix(0.05,0,0,0.05,0,0)" xlink:href="#ax"/><use transform="matrix(0.05,0,0,0.05,12.950000000000001,0)" xlink:href="#ay"/></g><g id="S"><use transform="matrix(0.05,0,0,0.05,0,0)" xlink:href="#Z"/><use transform="matrix(0.05,0,0,0.05,9,0)" xlink:href="#aa"/></g><g id="T"><use transform="matrix(0.05,0,0,0.05,0,0)" xlink:href="#aa"/><use transform="matrix(0.05,0,0,0.05,10,0)" xlink:href="#ad"/><use transform="matrix(0.05,0,0,0.05,20,0)" xlink:href="#ab"/><use transform="matrix(0.05,0,0,0.05,29,0)" xlink:href="#ay"/><use transform="matrix(0.05,0,0,0.05,39,0)" xlink:href="#ad"/><use transform="matrix(0.05,0,0,0.05,49,0)" xlink:href="#aj"/><use transform="matrix(0.05,0,0,0.05,54,0)" xlink:href="#ak"/><use transform="matrix(0.05,0,0,0.05,59.95,0)" xlink:href="#ac"/></g><path d="M84 4C-5 8 30-112 23-190h32v120c0 31 7 50 39 49 72-2 45-101 50-169h31l1 190h-30c-1-10 1-25-2-33-11 22-28 36-60 37" id="aF"/><g id="U"><use transform="matrix(0.05,0,0,0.05,0,0)" xlink:href="#aF"/><use transform="matrix(0.05,0,0,0.05,10,0)" xlink:href="#ad"/><use transform="matrix(0.05,0,0,0.05,20,0)" xlink:href="#aC"/></g><path d="M9 0v-24l116-142H16v-24h144v24L44-24h123V0H9" id="aG"/><g id="V"><use transform="matrix(0.05,0,0,0.05,0,0)" xlink:href="#ak"/><use transform="matrix(0.05,0,0,0.05,5.95,0)" xlink:href="#aC"/><use transform="matrix(0.05,0,0,0.05,15.949999999999998,0)" xlink:href="#am"/><use transform="matrix(0.05,0,0,0.05,20.95,0)" xlink:href="#aG"/></g><path d="M63-220v92h138v28H63V0H30v-248h175v28H63" id="aH"/><g id="W"><use transform="matrix(0.05,0,0,0.05,0,0)" xlink:href="#aH"/><use transform="matrix(0.05,0,0,0.05,10.950000000000001,0)" xlink:href="#Y"/><use transform="matrix(0.05,0,0,0.05,14.9,0)" xlink:href="#ad"/></g></defs></g></svg>